<?xml version="1.0" encoding="utf-8"?>
<!-- Generator: Adobe Illustrator 24.1.0, SVG Export Plug-In . SVG Version: 6.00 Build 0)  -->
<svg version="1.1" id="Calque_1" xmlns="http://www.w3.org/2000/svg" xmlns:xlink="http://www.w3.org/1999/xlink" x="0px" y="0px"
	 viewBox="0 0 144 39.2" style="enable-background:new 0 0 144 39.2;" xml:space="preserve">
<style type="text/css">
	.st0{fill:#D10024;}
</style>
<path class="st0" d="M130.2,14.6c-15.8,11.6-38.6,17.8-58.3,17.8C45.6,32.5,20.2,22.8,0.7,5.2c-1.5-1.3-0.2-3.1,1.6-2.1
	C24,15.5,48.5,22,73.5,22c18.7-0.1,37.1-3.9,54.3-11.1C130.6,9.8,132.8,12.7,130.2,14.6L130.2,14.6z"/>
<path class="st0" d="M136.8,7.1c-2-2.6-13.3-1.2-18.4-0.6c-1.5,0.2-1.8-1.1-0.4-2.1c9-6.3,23.8-4.5,25.5-2.4s-0.5,17-8.9,24
	c-1.3,1.1-2.5,0.5-2-0.9C134.5,20.3,138.8,9.7,136.8,7.1L136.8,7.1z"/>
</svg>
