<?xml version="1.0" encoding="utf-8"?>
<!-- Generator: Adobe Illustrator 24.1.2, SVG Export Plug-In . SVG Version: 6.00 Build 0)  -->
<svg version="1.1" id="Capa_1" xmlns="http://www.w3.org/2000/svg" xmlns:xlink="http://www.w3.org/1999/xlink" x="0px" y="0px"
	 viewBox="0 0 327.3 113.6" style="enable-background:new 0 0 327.3 113.6;" xml:space="preserve">
<style type="text/css">
	.st0{display:none;fill:#F3F2F2;}
	.st1{fill:#D10024;}
	.st2{fill:#FFFFFF;}
</style>
<circle class="st0" cx="156.8" cy="56.7" r="237"/>
<path class="st1" d="M211.4,89c-15.8,11.6-38.6,17.8-58.3,17.8c-26.3,0.1-51.7-9.6-71.2-27.2c-1.5-1.3-0.2-3.1,1.6-2.1
	c21.7,12.4,46.2,18.9,71.2,18.9c18.7-0.1,37.1-3.9,54.3-11.1C211.8,84.2,214,87.1,211.4,89z"/>
<path class="st1" d="M218,81.5c-2-2.6-13.3-1.2-18.4-0.6c-1.5,0.2-1.8-1.1-0.4-2.1c9-6.3,23.8-4.5,25.5-2.4s-0.5,17-8.9,24
	c-1.3,1.1-2.5,0.5-2-0.9C215.7,94.7,220,84.1,218,81.5z"/>
<path class="st2" d="M56.7,69.7c0,1.6-0.4,1.9-1.9,1.9h-7.9c-1.5,0-1.9-0.3-1.9-1.9l-0.7-30.5C44.2,36,44.1,28,44.1,24.8h-0.2
	c-0.5,3.2-2.2,10.9-3.2,14.1l-5.5,17.6c-0.4,1.2-0.4,1.5-2,1.5h-5.4c-1.5,0-1.6-0.3-2-1.5l-5.2-17.6c-1-3.2-2.6-10.9-3.2-14.1h-0.2
	c0,3.2-0.1,11.2-0.2,14.4l-0.9,30.5c-0.1,1.6-0.4,1.9-1.9,1.9H7.7c-1.5,0-2-0.3-1.9-1.9l2.5-57.9c0-1.6,0.4-1.9,1.9-1.9h8.6
	c1.4,0,1.5,0.1,2,1.4L28.1,34c1.2,3.5,2.1,7.1,2.7,10.8h0.1c0.5-3.5,0.9-4.9,2.9-10.8l7.7-22.7c0.4-1.3,0.5-1.4,2.2-1.4h8.6
	c1.5,0,1.7,0.4,1.9,2.9L56.7,69.7z"/>
<path class="st2" d="M95.1,72.7c-0.4,0.2-0.8,0.3-1.2,0.4c-0.8,0-2.2-3.1-2.6-5.4c-1.8,1.8-4.9,5.4-11.7,5.4
	c-8.3,0-13.5-5.4-13.5-13.9C66.1,44,82.5,44,89.6,44v-2.8c0-4.1-0.7-6.7-6.4-6.7c-5,0-10,2.7-11.2,2.7c-0.4,0-0.8-0.5-0.9-0.9
	l-1.8-5.5c-0.2-0.3-0.3-0.7-0.3-1.1c0-2.1,8.9-4.2,15.8-4.2c11.2,0,15.5,5.1,15.5,14.5v17.4c0,8.7,2.3,9.9,2.3,11.7
	c0,0.4-0.4,0.6-0.8,0.8L95.1,72.7z M89.6,51.4c-2.2,0-12.7-0.7-12.7,7.2c-0.1,3.2,2.4,6,5.6,6.1h0.3c3.3,0,5.7-2.3,6.8-3.4
	L89.6,51.4L89.6,51.4z"/>
<path class="st2" d="M146,54.1c0,5.9,0.4,15.2,0.4,20.2c0,9.8-4.9,16.3-17.4,16.3c-7,0-18.6-2.9-18.6-4.8c0-0.6,0.1-1.2,0.4-1.8
	l1.7-5.5c0.2-0.6,0.5-0.9,1-0.9c1.1,0,6.6,3.5,14.6,3.5c6.3,0,7.4-2.6,7.4-7.7c0-3.1-0.3-5.3-0.3-5.9c-3.2,2.3-7,3.5-10.9,3.4
	c-10.1,0-15.4-8.5-15.4-22c0.1-14.4,6.3-23.4,17.1-23.4c4-0.2,7.9,1.4,10.7,4.2c0.3-0.8,1.9-4.2,3.1-4.2c0.3,0,0.6,0.1,0.9,0.2
	l7,2.6c0.4,0.2,0.8,0.4,0.8,0.8c0,1.2-2.5,4.4-2.5,11.5V54.1z M135.2,37.7c-1.9-1.8-4.5-2.8-7.1-2.7c-5.4,0-7.7,5-7.7,13.7
	c0,8.2,1.8,13.3,7.2,13.3c2.9,0.1,5.6-1,7.6-3.1V37.7z"/>
<path class="st2" d="M183.4,72.7c-0.4,0.2-0.8,0.3-1.2,0.4c-0.8,0-2.2-3.1-2.6-5.4c-1.8,1.8-5,5.4-11.7,5.4
	c-8.3,0-13.5-5.4-13.5-13.9c0-15.2,16.4-15.2,23.5-15.2v-2.8c0-4.1-0.7-6.7-6.4-6.7c-5,0-10,2.7-11.2,2.7c-0.4,0-0.8-0.5-0.9-0.9
	l-1.8-5.5c-0.2-0.3-0.3-0.7-0.3-1.1c0-2.1,8.9-4.2,15.8-4.2c11.3,0,15.5,5.1,15.5,14.5v17.4c0,8.7,2.3,9.9,2.3,11.7
	c0,0.4-0.4,0.6-0.8,0.8L183.4,72.7z M177.9,51.4c-2.2,0-12.7-0.7-12.7,7.2c-0.1,3.2,2.4,6,5.6,6.1h0.3c3.3,0,5.7-2.3,6.8-3.4V51.4z"
	/>
<path class="st2" d="M211,60.3l18.9-25.2v-7c0-0.5-0.8-0.9-1.5-0.9h-28.6c-1,0-1.3,0.4-1.3,1.3v7c0,0.6,0.2,1.2,0.6,1.2h18.2
	l-20.7,27.4v6.4c0,0.2,0.2,0.4,0.4,0.4c0.1,0,0.1,0,0.2,0c12.1-6,28.2-3.6,31.5-1.9c0.3,0.1,0.6,0,0.7-0.2c0,0,0,0,0-0.1
	c0,0,1.5-3.5,2.1-4.9c0.1-0.3,0-0.6-0.3-0.7c-5.6-2.8-12.3-3.6-20.3-2.5C211,60.4,211,60.3,211,60.3z"/>
<path class="st2" d="M256.2,73.1c-12.1,0-19.5-9.3-19.5-23.8s7.4-23.7,19.5-23.7c12.1,0,19.5,9.3,19.5,23.8S268.3,73.1,256.2,73.1z
	 M263.6,49.4c0-8.4-1.2-14.8-7.4-14.8c-6.2,0-7.4,6.4-7.4,14.8s1.1,14.8,7.4,14.8C262.5,64.2,263.6,57.8,263.6,49.4z"/>
<path class="st2" d="M321.6,70.3c0,1-0.2,1.3-1.3,1.3h-8.9c-1.1,0-1.3-0.3-1.3-1.3V42.6c0-3.4-0.5-7.6-5-7.6c-3.8,0-6.8,2.6-7.9,3.7
	v31.6c0,1-0.2,1.3-1.3,1.3H287c-1.1,0-1.3-0.3-1.3-1.3V43.1c0-12.7-1.7-12-1.7-14c0-0.4,0.4-0.8,1-1l6.8-2.2
	c0.4-0.2,0.9-0.3,1.4-0.3c1.2,0,1.9,2,2.9,6.2c2.6-2.3,6.7-6.2,13.8-6.2c5,0,11.7,2.2,11.7,13.1L321.6,70.3z"/>
</svg>
